<svg width="1000" height="1000" viewBox="0 0 1000 1000" fill="none" xmlns="http://www.w3.org/2000/svg">
<g clip-path="url(#clip0_14_2)">
<rect width="1000" height="1000" rx="215" fill="white"/>
<rect width="1000" height="1000" fill="#2963FC"/>
<path d="M837.071 474.571H811.143V396.786C811.143 376.156 802.948 356.371 788.36 341.783C773.772 327.195 753.987 319 733.357 319H655.571C634.941 319 615.156 327.195 600.569 341.783C585.981 356.371 577.786 376.156 577.786 396.786V474.571H422.214V396.786C422.214 376.156 414.019 356.371 399.431 341.783C384.844 327.195 365.059 319 344.429 319H266.643C246.013 319 226.228 327.195 211.64 341.783C197.052 356.371 188.857 376.156 188.857 396.786V474.571H162.929C156.052 474.571 149.457 477.303 144.594 482.166C139.732 487.028 137 493.623 137 500.5C137 507.377 139.732 513.972 144.594 518.834C149.457 523.697 156.052 526.429 162.929 526.429H188.857V604.214C188.857 624.844 197.052 644.629 211.64 659.217C226.228 673.805 246.013 682 266.643 682H344.429C365.059 682 384.844 673.805 399.431 659.217C414.019 644.629 422.214 624.844 422.214 604.214V526.429H577.786V604.214C577.786 624.844 585.981 644.629 600.569 659.217C615.156 673.805 634.941 682 655.571 682H733.357C753.987 682 773.772 673.805 788.36 659.217C802.948 644.629 811.143 624.844 811.143 604.214V526.429H837.071C843.948 526.429 850.543 523.697 855.406 518.834C860.268 513.972 863 507.377 863 500.5C863 493.623 860.268 487.028 855.406 482.166C850.543 477.303 843.948 474.571 837.071 474.571ZM370.357 604.214C370.357 611.091 367.625 617.686 362.763 622.549C357.9 627.411 351.305 630.143 344.429 630.143H266.643C259.766 630.143 253.171 627.411 248.309 622.549C243.446 617.686 240.714 611.091 240.714 604.214V396.786C240.714 389.909 243.446 383.314 248.309 378.451C253.171 373.589 259.766 370.857 266.643 370.857H344.429C351.305 370.857 357.9 373.589 362.763 378.451C367.625 383.314 370.357 389.909 370.357 396.786V604.214ZM759.286 604.214C759.286 611.091 756.554 617.686 751.691 622.549C746.829 627.411 740.234 630.143 733.357 630.143H655.571C648.695 630.143 642.1 627.411 637.237 622.549C632.375 617.686 629.643 611.091 629.643 604.214V396.786C629.643 389.909 632.375 383.314 637.237 378.451C642.1 373.589 648.695 370.857 655.571 370.857H733.357C740.234 370.857 746.829 373.589 751.691 378.451C756.554 383.314 759.286 389.909 759.286 396.786V604.214Z" fill="white"/>
<rect x="286" y="443" width="40" height="116" rx="12" fill="white"/>
<rect x="678" y="443" width="40" height="116" rx="12" fill="white"/>
</g>
<defs>
<clipPath id="clip0_14_2">
<rect width="1000" height="1000" rx="215" fill="white"/>
</clipPath>
</defs>
</svg>
